#!OML:ASF G:\JayActor3\Patient Classification 1\Patient 1\Session 6\male.ASF
:FULLY-SPECIFIED
:DEGREES
799
root 6.77039 16.4934 0.360551 21.821 -49.441 -5.9274
lowerback 19.823 3.30758 2.62679
upperback 11.7533 4.17356 -0.508855
thorax 1.89155 2.04278 -2.74951
lowerneck -10.6104 -5.47713 -4.25803
upperneck 2.96888 -7.1917 6.73375
head 3.32524 -3.38893 2.5407
rclavicle 1.51076e-014 4.57205e-015
rhumerus 11.7757 21.3248 -72.1109
rradius 55.0968
rwrist -43.3894
rhand -13.2361 -8.74653
rfingers 7.12502
rthumb 12.8656 -38.33
lclavicle 1.51076e-014 4.57205e-015
lhumerus -25.2527 -1.50365 82.2012
lradius 40.5477
lwrist 26.7663
lhand -17.8093 8.03919
lfingers 7.12502
lthumb 8.45436 37.85
rfemur -45.9329 -6.5056 22.7395
rtibia 45.5475
rfoot -11.7485 -6.33577
rtoes 6.00812
lfemur -36.2051 7.98064 -20.9923
ltibia 33.0296
lfoot -13.6302 3.78962
ltoes 2.08813
800
root 6.77867 16.5083 0.401958 21.6991 -50.088 -6.359
lowerback 19.3903 3.24277 2.53551
upperback 11.5852 4.08097 -0.631743
thorax 1.91959 1.99846 -2.79397
lowerneck -10.7684 -5.31774 -4.08736
upperneck 3.55707 -7.01527 6.63064
head 3.53644 -3.29022 2.48369
rclavicle 8.94531e-015 -7.65321e-015
rhumerus 10.9321 21.9218 -72.4553
rradius 56.323
rwrist -44.3432
rhand -12.9576 -8.93034
rfingers 7.12502
rthumb 13.134 -38.4967
lclavicle 8.94531e-015 -7.65321e-015
lhumerus -25.1273 -1.26295 81.9475
lradius 40.3562
lwrist 26.7387
lhand -17.9141 8.11984
lfingers 7.12502
lthumb 8.35324 37.9347
rfemur -45.146 -6.2808 22.7195
rtibia 45.1064
rfoot -11.5856 -6.20872
rtoes 4.71333
lfemur -35.3129 8.30812 -20.8646
ltibia 32.6862
lfoot -13.7425 4.16197
ltoes 2.09465
801
root 6.7866 16.5215 0.441621 21.6028 -50.7289 -6.79354
lowerback 18.9516 3.17414 2.42094
upperback 11.4237 3.98038 -0.733506
thorax 1.95511 1.9482 -2.80168
lowerneck -10.9722 -5.14768 -3.85467
upperneck 4.42698 -6.84837 6.66602
head 3.46348 -3.17074 2.21373
rclavicle -1.69837e-014 -4.67144e-015
rhumerus 10.1454 22.5231 -72.7524
rradius 57.542
rwrist -45.2753
rhand -12.7076 -9.12139
rfingers 7.12502
rthumb 13.3751 -38.6721
lclavicle -1.69837e-014 -4.67144e-015
lhumerus -24.9824 -1.00489 81.6988
lradius 40.1489
lwrist 26.7535
lhand -18.0333 8.1737
lfingers 7.12502
lthumb 8.23824 37.9931
rfemur -44.3832 -6.05032 22.7004
rtibia 44.6777
rfoot -11.5923 -6.07628
rtoes 2.9331
lfemur -34.469 8.63958 -20.7368
ltibia 32.3806
lfoot -13.8625 4.51801
ltoes 2.105
802
root 6.79359 16.5331 0.479754 21.5313 -51.3735 -7.24918
lowerback 18.5264 3.10465 2.30395
upperback 11.2684 3.87864 -0.825851
thorax 1.99112 1.89673 -2.79905
lowerneck -11.162 -4.98453 -3.71246
upperneck 5.03644 -6.6657 6.56142
head 3.66125 -3.06748 2.16182
rclavicle 1.38155e-014 9.39258e-015
rhumerus 9.40199 23.1099 -73.0306
rradius 58.7499
rwrist -46.1648
rhand -12.4831 -9.32863
rfingers 7.12502
rthumb 13.5914 -38.865
lclavicle 1.38155e-014 9.39258e-015
lhumerus -24.8011 -0.714608 81.4589
lradius 39.9125
lwrist 26.7403
lhand -18.1198 8.15791
lfingers 7.12502
lthumb 8.15472 37.9806
rfemur -43.621 -5.79761 22.688
rtibia 44.2574
rfoot -11.7874 -5.91064
rtoes 0.697848
lfemur -33.6525 8.98587 -20.5957
ltibia 32.1128
lfoot -13.9956 4.86206
ltoes 2.09377
803
root 6.79949 16.5432 0.51596 21.4732 -52.0249 -7.70694
lowerback 18.1075 3.0419 2.1701
upperback 11.1194 3.78355 -0.912405
thorax 2.03087 1.84747 -2.78263
lowerneck -11.3567 -4.8262 -3.57846
upperneck 5.63338 -6.48972 6.4731
head 3.85819 -2.9673 2.11652
rclavicle 6.12257e-014 -1.21259e-014
rhumerus 8.69358 23.658 -73.2955
rradius 59.9428
rwrist -47.004
rhand -12.2483 -9.56778
rfingers 7.12502
rthumb 13.8178 -39.0888
lclavicle 6.12257e-014 -1.21259e-014
lhumerus -24.5885 -0.41931 81.2164
lradius 39.6579
lwrist 26.7104
lhand -18.2281 8.15273
lfingers 7.12502
lthumb 8.05019 37.9794
rfemur -42.863 -5.52981 22.6733
rtibia 43.8474
rfoot -12.148 -5.69185
rtoes -1.88894
lfemur -32.8632 9.3407 -20.4532
ltibia 31.8801
lfoot -14.1405 5.19984
ltoes 2.05478
804
root 6.80476 16.5517 0.550631 21.4241 -52.6734 -8.16014
lowerback 17.6969 2.98153 2.03904
upperback 10.9725 3.69269 -1.00221
thorax 2.07087 1.80059 -2.77278
lowerneck -11.539 -4.67404 -3.43689
upperneck 6.20712 -6.32475 6.40193
head 4.04788 -2.87233 2.07568
rclavicle 5.62561e-014 -2.74323e-014
rhumerus 8.00423 24.1661 -73.56
rradius 61.1208
rwrist -47.8016
rhand -12.0552 -9.81082
rfingers 7.12502
rthumb 14.0038 -39.3191
lclavicle 5.62561e-014 -2.74323e-014
lhumerus -24.3675 -0.169655 80.9665
lradius 39.424
lwrist 26.6753
lhand -18.3439 8.1753
lfingers 7.12502
lthumb 7.9384 38.0062
rfemur -42.1108 -5.25317 22.6521
rtibia 43.4492
rfoot -12.632 -5.41465
rtoes -4.62149
lfemur -32.1032 9.68929 -20.313
ltibia 31.6782
lfoot -14.2915 5.5398
ltoes 1.9809
805
root 6.80935 16.5587 0.582916 21.3751 -53.3074 -8.5948
lowerback 17.3003 2.92088 1.90934
upperback 10.8213 3.60281 -1.09826
thorax 2.1009 1.75444 -2.77181
lowerneck -11.6947 -4.53545 -3.29612
upperneck 6.75433 -6.18088 6.35885
head 4.22802 -2.7873 2.0434
rclavicle -3.20043e-014 -1.90833e-014
rhumerus 7.31873 24.633 -73.8343
rradius 62.2839
rwrist -48.5667
rhand -11.9065 -10.0529
rfingers 7.12502
rthumb 14.1471 -39.5512
lclavicle -3.20043e-014 -1.90833e-014
lhumerus -24.1582 0.00767554 80.7084
lradius 39.2389
lwrist 26.6339
lhand -18.4803 8.27479
lfingers 7.12502
lthumb 7.8068 38.1107
rfemur -41.3696 -4.96846 22.6201
rtibia 43.0686
rfoot -13.1936 -5.10543
rtoes -7.31477
lfemur -31.3745 10.0291 -20.1818
ltibia 31.4984
lfoot -14.4391 5.87424
ltoes 1.87816
806
root 6.81376 16.5643 0.613881 21.3005 -53.9145 -8.99257
lowerback 16.9324 2.84592 1.79813
upperback 10.6631 3.49797 -1.20992
thorax 2.11137 1.70214 -2.79771
lowerneck -11.805 -4.39941 -3.15197
upperneck 7.2655 -6.04405 6.34334
head 4.3916 -2.70556 2.02026
rclavicle 1.03368e-014 -4.13472e-014
rhumerus 6.62892 25.069 -74.136
rradius 63.4302
rwrist -49.291
rhand -11.8163 -10.2746
rfingers 7.12502
rthumb 14.234 -39.7668
lclavicle 1.03368e-014 -4.13472e-014
lhumerus -23.9732 0.138636 80.4287
lradius 39.1012
lwrist 26.5614
lhand -18.6217 8.41556
lfingers 7.12502
lthumb 7.67026 38.2565
rfemur -40.6302 -4.71097 22.573
rtibia 42.7117
rfoot -13.7799 -4.76755
rtoes -9.77876
lfemur -30.6603 10.3447 -20.0696
ltibia 31.3303
lfoot -14.5793 6.2057
ltoes 1.73853
807
root 6.81753 16.5689 0.643417 21.1912 -54.5044 -9.34611
lowerback 16.5841 2.76147 1.67525
upperback 10.5044 3.37988 -1.3251
thorax 2.1108 1.64262 -2.82046
lowerneck -11.877 -4.26909 -3.02048
upperneck 7.7423 -5.91484 6.34564
head 4.54022 -2.6281 2.00548
rclavicle -5.76476e-014 3.97569e-014
rhumerus 5.9503 25.4935 -74.44
rradius 64.5562
rwrist -49.9891
rhand -11.7706 -10.4591
rfingers 7.12502
rthumb 14.2781 -39.9483
lclavicle -5.76476e-014 3.97569e-014
lhumerus -23.8003 0.247069 80.1412
lradius 38.9872
lwrist 26.4583
lhand -18.7266 8.53666
lfingers 7.12502
lthumb 7.56907 38.3812
rfemur -39.8916 -4.46969 22.506
rtibia 42.3846
rfoot -14.3734 -4.43594
rtoes -11.876
lfemur -29.9494 10.6456 -19.981
ltibia 31.1632
lfoot -14.7177 6.53024
ltoes 1.60837
808
root 6.82062 16.5727 0.67188 21.043 -55.0821 -9.65159
lowerback 16.2578 2.6607 1.53366
upperback 10.3429 3.23878 -1.44185
thorax 2.09419 1.57054 -2.83295
lowerneck -11.9174 -4.13597 -2.91859
upperneck 8.19446 -5.77909 6.36399
head 4.67757 -2.5483 2.00212
rclavicle 3.10104e-014 -4.81059e-014
rhumerus 5.29133 25.9356 -74.7407
rradius 65.6612
rwrist -50.648
rhand -11.7628 -10.6226
rfingers 7.12502
rthumb 14.2856 -40.1112
lclavicle 3.10104e-014 -4.81059e-014
lhumerus -23.6553 0.346772 79.8479
lradius 38.9102
lwrist 26.3424
lhand -18.7969 8.62996
lfingers 7.12502
lthumb 7.50122 38.477
rfemur -39.1558 -4.24534 22.4192
rtibia 42.0945
rfoot -14.9708 -4.15197
rtoes -13.5122
lfemur -29.234 10.9177 -19.9162
ltibia 30.9874
lfoot -14.8541 6.8648
ltoes 1.48461
809
root 6.82285 16.5759 0.699241 20.8745 -55.6607 -9.92372
lowerback 15.927 2.56214 1.36577
upperback 10.1881 3.09761 -1.54845
thorax 2.08593 1.49694 -2.8202
lowerneck -11.9337 -4.00842 -2.83933
upperneck 8.61638 -5.64631 6.38009
head 4.8026 -2.47178 2.00248
rclavicle 4.49253e-014 -4.81059e-014
rhumerus 4.6588 26.3603 -75.014
rradius 66.7408
rwrist -51.2661
rhand -11.7546 -10.7754
rfingers 7.12502
rthumb 14.2935 -40.2634
lclavicle 4.49253e-014 -4.81059e-014
lhumerus -23.4947 0.445187 79.5717
lradius 38.828
lwrist 26.1976
lhand -18.8414 8.69703
lfingers 7.12502
lthumb 7.4582 38.5456
rfemur -38.4294 -4.02532 22.3228
rtibia 41.848
rfoot -15.5837 -3.94172
rtoes -14.6622
lfemur -28.5172 11.1722 -19.8678
ltibia 30.8007
lfoot -14.9942 7.20591
ltoes 1.41645
810
root 6.82439 16.5789 0.725819 20.7011 -56.2505 -10.1766
lowerback 15.5959 2.47221 1.19447
upperback 10.0355 2.96777 -1.65555
thorax 2.08198 1.42894 -2.80811
lowerneck -11.9418 -3.8894 -2.76688
upperneck 9.0229 -5.5233 6.39203
head 4.92232 -2.40098 2.00241
rclavicle 2.82274e-014 -1.27222e-014
rhumerus 4.03543 26.7461 -75.2731
rradius 67.799
rwrist -51.8432
rhand -11.7477 -10.9137
rfingers 7.12502
rthumb 14.3001 -40.4013
lclavicle 2.82274e-014 -1.27222e-014
lhumerus -23.3497 0.429525 79.3111
lradius 38.8105
lwrist 26.1176
lhand -18.8848 8.76154
lfingers 7.12502
lthumb 7.41635 38.6115
rfemur -37.7192 -3.80763 22.2261
rtibia 41.6524
rfoot -16.212 -3.83944
rtoes -15.3752
lfemur -27.8029 11.4074 -19.8296
ltibia 30.606
lfoot -15.139 7.56877
ltoes 1.3687
811
root 6.82578 16.5813 0.751467 20.5354 -56.8495 -10.4189
lowerback 15.2605 2.39271 1.02752
upperback 9.88498 2.85271 -1.7606
thorax 2.08474 1.3686 -2.79855
lowerneck -11.9446 -3.77674 -2.68532
upperneck 9.41393 -5.40744 6.3824
head 5.03605 -2.33513 1.99405
rclavicle -3.33958e-014 5.64548e-014
rhumerus 3.42341 27.0773 -75.5131
rradius 68.8338
rwrist -52.3879
rhand -11.6996 -11.0594
rfingers 7.12502
rthumb 14.3464 -40.5437
lclavicle -3.33958e-014 5.64548e-014
lhumerus -23.2052 0.344944 79.0691
lradius 38.8423
lwrist 26.0623
lhand -18.9396 8.86975
lfingers 7.12502
lthumb 7.36341 38.7216
rfemur -37.0327 -3.60976 22.144
rtibia 41.5131
rfoot -16.8499 -3.89174
rtoes -15.8062
lfemur -27.1042 11.6205 -19.7976
ltibia 30.412
lfoot -15.2906 7.95261
ltoes 1.3569
812
root 6.82715 16.5828 0.77651 20.3799 -57.462 -10.6647
lowerback 14.9289 2.3269 0.874691
upperback 9.74066 2.75747 -1.86398
thorax 2.09515 1.31879 -2.79821
lowerneck -11.9484 -3.66669 -2.57887
upperneck 9.79416 -5.2947 6.33892
head 5.1454 -2.27229 1.97115
rclavicle 3.18055e-014 -5.32743e-014
rhumerus 2.82046 27.3482 -75.7443
rradius 69.8423
rwrist -52.9001
rhand -11.6347 -11.1956
rfingers 7.12502
rthumb 14.409 -40.6755
lclavicle 3.18055e-014 -5.32743e-014
lhumerus -23.0158 0.278813 78.8369
lradius 38.8473
lwrist 25.9687
lhand -19.0056 8.96414
lfingers 7.12502
lthumb 7.29977 38.8182
rfemur -36.3602 -3.45361 22.0912
rtibia 41.4337
rfoot -17.4799 -4.11382
rtoes -16.1126
lfemur -26.4145 11.8271 -19.7655
ltibia 30.2269
lfoot -15.4533 8.34585
ltoes 1.38259
